<?xml version="1.0" encoding="utf-8"?>
<!-- Generator: Adobe Illustrator 25.2.0, SVG Export Plug-In . SVG Version: 6.00 Build 0)  -->
<svg version="1.1" id="Capa_1" xmlns="http://www.w3.org/2000/svg" xmlns:xlink="http://www.w3.org/1999/xlink" x="0px" y="0px"
	 viewBox="0 0 1134.2 422.2" style="enable-background:new 0 0 1134.2 422.2;" xml:space="preserve">
<style type="text/css">
	.st0{display:none;fill:#020202;stroke:#FFFFFF;stroke-width:3;stroke-miterlimit:10;}
	.st1{fill:#FFFFFF;}
	.st2{font-family:'Roboto-Black';}
	.st3{font-size:233.66px;}
	.st4{display:none;fill:none;stroke:#FFFFFF;stroke-width:4;stroke-miterlimit:10;}
	.st5{display:none;fill:none;stroke:#FFFFFF;stroke-width:3;stroke-miterlimit:10;}
</style>
<rect x="-116.3" y="-144.9" class="st0" width="1349.3" height="732.7"/>
<text transform="matrix(1 0 0 1 0 199.4253)" class="st1 st2 st3">JORDI</text>
<path class="st4" d="M119.6,33.3v120c0,0-4.2,46.6-55.2,48.5c-44.2,0-59.5-23-59.4-52.5h40.2c0,0-2.5,22.1,17.1,21.7
	c18.8-0.9,17.3-23.6,17.3-23.6v-114H119.6z"/>
<path class="st4" d="M212.8,62.4c0,0-32.1-5.7-31.9,51.4s23.2,55.8,32.1,56.7c26-1.1,30-19.4,31.7-57.6S226,59.8,212.8,62.4z"/>
<path class="st4" d="M285.4,119.8c-1.8,54.2-31.4,80.4-72.4,81.9c-40.6-1.7-69.9-23.3-72.9-79.3c0.6-56.4,22.1-89.3,72.7-91.4
	C263.8,31.5,287,71.3,285.4,119.8z"/>
<path class="st4" d="M346.1,64.1v45.8h27.2c0,0,20.8,1.8,21.1-22.8s-22.9-23-22.9-23H346.1z"/>
<path class="st4" d="M346.1,199.4v-58.8h21.7l29.3,58.8H440l-34.7-68.8c0,0,29.7-9.6,29-47.2s-34.2-46.2-34.2-46.2l-5.8-1.3
	l-6.7-1.3l-9.7-1.3l-71.9-0.1v166.1L346.1,199.4L346.1,199.4z"/>
<path class="st4" d="M458.5,33.3h60.1c0,0,70.5,7.2,70.5,78.9c5.7,67.9-49.1,81.8-57.8,85c-8.7,3.2-14.2,2.1-14.2,2.1h-58.6
	L458.5,33.3L458.5,33.3z"/>
<path class="st4" d="M498.6,64.2v104.4h18.1c0,0,31.5,4.6,31.5-55.9c0-45.5-26.5-47.2-26.5-47.2s-1.7-1.4-9.7-1.3
	C504,64.3,498.6,64.2,498.6,64.2z"/>
<rect x="612.3" y="33.3" class="st4" width="39.9" height="166.1"/>
<path class="st5" d="M13.4,409.8V243.7h68.3c0,0,56.4-1.5,56.9,45.9c0,22.6-12.4,31.5-23.4,35.5c19.5,4.3,27.1,29.2,26.9,35.6
	s-0.5,30.9-23.3,42c-10.8,4.9-10.8,4.9-35.2,7.2S13.4,409.8,13.4,409.8z"/>
<path class="st5" d="M53.5,339.2V379H83c0,0,18.5,0.1,19.2-18.9c-1.2-17.7-10.3-20.2-20.7-20.9C70.9,339.2,53.5,339.2,53.5,339.2z"
	/>
<path class="st5" d="M53.5,274.5V313h24.4c0,0,20.3,2.1,20.8-18.6s-20.8-19.8-20.8-19.8L53.5,274.5L53.5,274.5z"/>
<path class="st5" d="M232.2,272.8c0,0-31.8-3-31.8,45.2s7.7,62.9,32.1,62.9s31.7-15.8,31.7-50S257.3,272.8,232.2,272.8z"/>
<path class="st5" d="M232.2,241.4c0,0-72.7-5.7-72.7,82s63.4,88.6,72.9,88.6s72.5-0.9,72.5-89.6
	C304.8,243.7,239.9,241.3,232.2,241.4z"/>
<path class="st5" d="M325.5,243.7v166.1h40v-58.8h21.7l29.3,58.8h42.9v-1.7L424.8,341c0,0,29-10.7,29-47.2s-28.7-50.1-62.9-50.1
	S325.5,243.7,325.5,243.7z"/>
<path class="st5" d="M365.5,320.2h25.3c0,0,22.6,1.8,22.9-22.8s-22.9-23-22.9-23h-25.3V320.2z"/>
<path class="st5" d="M545.4,272.2c0,0-31.8-3-31.8,45.2s7.7,62.9,32.1,62.9s31.7-15.8,31.7-50S570.6,272.2,545.4,272.2z"/>
<path class="st5" d="M545.4,240.8c0,0-72.7-5.7-72.7,82s63.4,88.6,72.9,88.6c9.5,0,72.5-0.9,72.5-89.6
	C618.1,243.1,553.1,240.7,545.4,240.8z"/>
<polygon class="st5" points="679.3,306.5 679.3,409.8 639.2,409.8 639.2,243.7 679.3,243.7 738,347.1 738,243.7 778,243.7 
	778,409.8 738.2,409.8 "/>
<polygon class="st5" points="853.4,243.7 891,243.7 952.4,409.8 909.4,409.8 899.7,378.8 844.8,378.8 835.2,409.8 792.5,409.8 "/>
<polygon class="st5" points="872.2,290.2 890.1,347.9 854.4,347.9 "/>
<polygon class="st5" points="1031.4,409.8 1031.4,274.6 1081.2,274.6 1081.2,243.7 942.4,243.7 942.4,274.6 991.3,274.6 
	991.3,409.8 "/>
<path class="st5" d="M1090.7,372.5c0,0,20.2-1.5,21.2,19.3c0,20.3-21.2,19.3-21.2,19.3s-21.2,0.1-21.2-19.3
	S1090.7,372.5,1090.7,372.5z"/>
</svg>
