<?xml version="1.0" encoding="utf-8"?>
<!-- Generator: Adobe Illustrator 25.2.0, SVG Export Plug-In . SVG Version: 6.00 Build 0)  -->
<svg version="1.1" id="Capa_1" xmlns="http://www.w3.org/2000/svg" xmlns:xlink="http://www.w3.org/1999/xlink" x="0px" y="0px"
	 viewBox="0 0 1134.19 506.22" style="enable-background:new 0 0 1134.19 506.22;" xml:space="preserve">
<style type="text/css">
	.st0{display:none;}
	.st1{display:inline;fill:#FFFFFF;}
	.st2{font-family:'Roboto-Black';}
	.st3{font-size:233.66px;}
	.st4{display:inline;}
	.st5{fill:none;stroke:#FFFFFF;stroke-width:4;stroke-miterlimit:10;}
	.st6{fill:none;stroke:#FFFFFF;stroke-width:3;stroke-miterlimit:10;}
</style>
<text transform="matrix(1 0 0 1 -4.1001 199.4253)" class="st0"><tspan x="0" y="0" class="st1 st2 st3">JORDI</tspan><tspan x="0" y="560.78" class="st4 st2 st3">    </tspan></text>
<path class="st5" d="M114.56,33.31v120c0,0-4.22,46.59-55.18,48.46c-44.19,0-59.52-22.99-59.37-52.54h40.16
	c0,0-2.53,22.15,17.11,21.68c18.8-0.89,17.34-23.62,17.34-23.62V33.31H114.56z"/>
<path class="st5" d="M207.77,62.4c0,0-32.1-5.73-31.89,51.36s23.2,55.85,32.11,56.68c26.04-1.07,30-19.43,31.72-57.62
	S221.02,59.84,207.77,62.4z"/>
<path class="st5" d="M280.44,119.79c-1.77,54.21-31.45,80.42-72.45,81.92c-40.57-1.67-69.92-23.28-72.9-79.29
	c0.61-56.44,22.09-89.33,72.68-91.39C258.77,31.51,282.03,71.26,280.44,119.79z"/>
<path class="st5" d="M341.14,64.11v45.75h27.16c0,0,20.84,1.75,21.1-22.76s-22.93-22.99-22.93-22.99H341.14z"/>
<path class="st5" d="M341.14,199.43v-58.76h21.68l29.32,58.76h42.9l-34.68-68.79c0,0,29.74-9.61,28.98-47.18
	s-34.17-46.24-34.17-46.24l-5.76-1.27l-6.72-1.27l-9.73-1.27l-71.86-0.1v166.12H341.14z"/>
<path class="st5" d="M453.52,33.31h60.05c0,0,70.52,7.25,70.47,78.95c5.65,67.9-49.11,81.85-57.78,85.03
	c-8.67,3.17-14.17,2.14-14.17,2.14h-58.57V33.31z"/>
<path class="st5" d="M493.57,64.23v104.39h18.1c0,0,31.55,4.58,31.53-55.91c0-45.47-26.45-47.16-26.45-47.16s-1.67-1.38-9.71-1.32
	S493.57,64.23,493.57,64.23z"/>
<rect x="607.32" y="33.31" class="st5" width="39.93" height="166.12"/>
<path class="st6" d="M8.45,479.82V313.7h68.26c0,0,56.38-1.51,56.9,45.86c0,22.64-12.4,31.52-23.39,35.48
	c19.46,4.28,27.1,29.17,26.93,35.6s-0.49,30.85-23.32,41.96c-10.78,4.92-10.78,4.92-35.21,7.22S8.45,479.82,8.45,479.82z"/>
<path class="st6" d="M48.5,409.19v39.82h29.48c0,0,18.48,0.07,19.23-18.94c-1.15-17.74-10.33-20.21-20.65-20.88
	C65.93,409.16,48.5,409.19,48.5,409.19z"/>
<path class="st6" d="M48.5,344.5v38.45h24.36c0,0,20.34,2.14,20.82-18.65s-20.82-19.8-20.82-19.8H48.5z"/>
<path class="st6" d="M227.16,342.79c0,0-31.83-2.97-31.83,45.18s7.66,62.86,32.06,62.86s31.72-15.77,31.72-49.97
	S252.33,342.79,227.16,342.79z"/>
<path class="st6" d="M227.16,311.42c0,0-72.68-5.68-72.68,82.03s63.41,88.65,72.9,88.65s72.45-0.88,72.45-89.56
	C299.84,313.69,234.88,311.29,227.16,311.42z"/>
<path class="st6" d="M320.49,313.7v166.12h40.05v-58.76h21.68l29.32,58.76h42.9v-1.71l-34.68-67.07c0,0,28.98-10.67,28.98-47.18
	s-28.71-50.15-62.86-50.15S320.49,313.7,320.49,313.7z"/>
<path class="st6" d="M360.54,390.25h25.33c0,0,22.62,1.78,22.93-22.76s-22.93-22.99-22.93-22.99h-25.33V390.25z"/>
<path class="st6" d="M540.42,342.19c0,0-31.83-2.97-31.83,45.18s7.66,62.86,32.06,62.86c24.4,0,31.72-15.77,31.72-49.97
	S565.58,342.19,540.42,342.19z"/>
<path class="st6" d="M540.42,310.82c0,0-72.68-5.68-72.68,82.03s63.41,88.65,72.9,88.65c9.5,0,72.45-0.88,72.45-89.56
	C613.09,313.1,548.13,310.7,540.42,310.82z"/>
<polygon class="st6" points="674.29,376.45 674.29,479.82 634.24,479.82 634.24,313.7 674.29,313.7 733.05,417.07 733.05,313.7 
	772.98,313.7 772.98,479.82 733.16,479.82 "/>
<polygon class="st6" points="848.39,313.7 886.04,313.7 947.43,479.82 904.41,479.82 894.71,448.78 839.84,448.78 830.25,479.82 
	787.47,479.82 "/>
<polygon class="st6" points="867.22,360.25 885.13,417.86 849.42,417.86 "/>
<polygon class="st6" points="1026.38,479.82 1026.38,344.62 1076.23,344.62 1076.23,313.7 937.38,313.7 937.38,344.62 
	986.33,344.62 986.33,479.82 "/>
<path class="st6" d="M1085.71,442.51c0,0,20.18-1.46,21.22,19.28c0,20.32-21.22,19.28-21.22,19.28s-21.22,0.15-21.22-19.28
	S1085.71,442.51,1085.71,442.51z"/>
</svg>
